<?xml version="1.0" encoding="UTF-8" standalone="no"?>
<!-- Created with Inkscape (http://www.inkscape.org/) -->

<svg
   width="200"
   height="200"
   viewBox="0 0 52.916665 52.916666"
   version="1.1"
   id="svg1"
   inkscape:version="1.3.2 (091e20e, 2023-11-25)"
   sodipodi:docname="hamburg.svg"
   xmlns:inkscape="http://www.inkscape.org/namespaces/inkscape"
   xmlns:sodipodi="http://sodipodi.sourceforge.net/DTD/sodipodi-0.dtd"
   xmlns="http://www.w3.org/2000/svg"
   xmlns:svg="http://www.w3.org/2000/svg">
  <sodipodi:namedview
     id="namedview1"
     pagecolor="#ffffff"
     bordercolor="#000000"
     borderopacity="0.25"
     inkscape:showpageshadow="2"
     inkscape:pageopacity="0.0"
     inkscape:pagecheckerboard="true"
     inkscape:deskcolor="#d1d1d1"
     inkscape:document-units="mm"
     inkscape:zoom="2.4679687"
     inkscape:cx="104.74201"
     inkscape:cy="108.59133"
     inkscape:window-width="1296"
     inkscape:window-height="837"
     inkscape:window-x="198"
     inkscape:window-y="165"
     inkscape:window-maximized="0"
     inkscape:current-layer="svg1" />
  <defs
     id="defs1" />
  <g
     inkscape:label="Layer 1"
     inkscape:groupmode="layer"
     id="layer1" />
  <path
     d="m 31.00868,26.514517 a 4.866041,4.866041 0 0 1 -4.866041,4.866046 4.866041,4.866041 0 0 1 -4.86604,-4.866046 4.866041,4.866041 0 0 1 4.86604,-4.86604 4.866041,4.866041 0 0 1 4.866041,4.86604 z m 0,21.086182 a 4.866041,4.866041 0 0 1 -4.866041,4.866039 4.866041,4.866041 0 0 1 -4.86604,-4.866039 4.866041,4.866041 0 0 1 4.86604,-4.86604 4.866041,4.866041 0 0 1 4.866041,4.86604 z m 0,-42.1723572 a 4.866041,4.866041 0 0 1 -4.866041,4.8660392 4.866041,4.866041 0 0 1 -4.86604,-4.8660392 4.866041,4.866041 0 0 1 4.86604,-4.866041 4.866041,4.866041 0 0 1 4.866041,4.866041 z"
     fill="#ffffff"
     id="path1"
     style="display:inline;stroke-width:1.62201" />
</svg>
